<?xml version="1.0" standalone="no"?>
<!DOCTYPE svg PUBLIC "-//W3C//DTD SVG 20010904//EN"
 "http://www.w3.org/TR/2001/REC-SVG-20010904/DTD/svg10.dtd">
<svg version="1.0" xmlns="http://www.w3.org/2000/svg"
 width="27.000000pt" height="27.000000pt" viewBox="0 0 693.000000 698.000000"
 preserveAspectRatio="xMidYMid meet">

<g transform="translate(0.000000,698.000000) scale(0.100000,-0.100000)"
fill="#D8D8D8" stroke="none">
<path d="M2657 6172 l-767 -767 300 -300 300 -300 770 770 770 770 -297 297
c-164 164 -300 298 -303 298 -3 0 -350 -345 -773 -768z"/>
<path d="M3415 5414 l-770 -764 490 -490 490 -490 770 770 770 770 -485 485
c-267 267 -487 485 -490 484 -3 0 -351 -344 -775 -765z"/>
<path d="M1240 4755 l-485 -485 300 -300 300 -300 487 487 488 488 -297 297
c-164 164 -300 298 -303 298 -3 0 -223 -218 -490 -485z"/>
<path d="M4547 4282 l-767 -767 773 -773 772 -772 770 770 770 770 -770 770
c-423 424 -772 770 -775 770 -3 0 -350 -345 -773 -768z"/>
<path d="M1997 4002 c-262 -262 -477 -482 -477 -487 0 -6 218 -228 485 -495
l485 -485 487 488 488 487 -485 485 c-267 267 -489 485 -495 485 -6 0 -225
-215 -488 -478z"/>
<path d="M302 3817 c-160 -160 -292 -297 -292 -302 0 -6 133 -143 295 -305
l295 -295 295 295 c162 162 295 299 295 305 0 10 -580 595 -590 595 -3 0 -137
-132 -298 -293z"/>
<path d="M1050 3055 l-295 -295 490 -490 490 -490 300 300 300 300 -485 485
c-267 267 -489 485 -495 485 -6 0 -143 -133 -305 -295z"/>
<path d="M3130 2865 l-485 -485 773 -773 772 -772 487 488 488 487 -770 770
c-423 423 -772 770 -775 770 -3 0 -223 -218 -490 -485z"/>
<path d="M2187 1922 l-297 -297 773 -773 772 -772 300 300 300 300 -770 770
c-423 424 -772 770 -775 770 -3 0 -139 -134 -303 -298z"/>
</g>
</svg>
